<svg width="12" height="12" viewBox="0 0 12 12" fill="none" xmlns="http://www.w3.org/2000/svg">
<path d="M6.70913 11.7082L11.7091 6.70823C11.8002 6.61313 11.8715 6.50098 11.9191 6.37823C12.0191 6.13477 12.0191 5.86169 11.9191 5.61823C11.8715 5.49548 11.8002 5.38334 11.7091 5.28823L6.70913 0.288232C6.61589 0.194994 6.5052 0.121033 6.38338 0.0705726C6.26155 0.0201123 6.13099 -0.00585963 5.99913 -0.00585964C5.73283 -0.00585965 5.47743 0.0999283 5.28913 0.288232C5.10082 0.476536 4.99504 0.73193 4.99504 0.998232C4.99504 1.26453 5.10082 1.51993 5.28913 1.70823L8.58913 4.99823L0.999127 4.99823C0.73391 4.99823 0.479556 5.10359 0.29202 5.29113C0.104483 5.47866 -0.000872863 5.73302 -0.000872874 5.99823C-0.000872886 6.26345 0.104483 6.5178 0.29202 6.70534C0.479556 6.89287 0.73391 6.99823 0.999127 6.99823L8.58913 6.99823L5.28913 10.2882C5.1954 10.3812 5.121 10.4918 5.07024 10.6137C5.01947 10.7355 4.99333 10.8662 4.99333 10.9982C4.99333 11.1302 5.01947 11.2609 5.07024 11.3828C5.121 11.5047 5.1954 11.6153 5.28913 11.7082C5.38209 11.802 5.49269 11.8764 5.61455 11.9271C5.73641 11.9779 5.86711 12.004 5.99913 12.004C6.13114 12.004 6.26184 11.9779 6.3837 11.9271C6.50556 11.8764 6.61616 11.802 6.70913 11.7082Z" fill="black"/>
</svg>
