<svg width="32" height="32" viewBox="0 0 32 32" fill="none" xmlns="http://www.w3.org/2000/svg">
<rect width="32" height="32" rx="6" fill="#F1F1F1"/>
<path d="M16.713 21.7082L21.713 16.7082C21.8041 16.6131 21.8754 16.501 21.923 16.3782C22.0231 16.1348 22.0231 15.8617 21.923 15.6182C21.8754 15.4955 21.8041 15.3833 21.713 15.2882L16.713 10.2882C16.6198 10.195 16.5091 10.121 16.3873 10.0706C16.2655 10.0201 16.1349 9.99414 16.003 9.99414C15.7367 9.99414 15.4813 10.0999 15.293 10.2882C15.1047 10.4765 14.9989 10.7319 14.9989 10.9982C14.9989 11.2645 15.1047 11.5199 15.293 11.7082L18.593 14.9982L11.003 14.9982C10.7378 14.9982 10.4835 15.1036 10.2959 15.2911C10.1084 15.4787 10.003 15.733 10.003 15.9982C10.003 16.2634 10.1084 16.5178 10.2959 16.7053C10.4835 16.8929 10.7378 16.9982 11.003 16.9982L18.593 16.9982L15.293 20.2882C15.1993 20.3812 15.1249 20.4918 15.0741 20.6137C15.0234 20.7355 14.9972 20.8662 14.9972 20.9982C14.9972 21.1302 15.0234 21.2609 15.0741 21.3828C15.1249 21.5047 15.1993 21.6153 15.293 21.7082C15.386 21.802 15.4966 21.8764 15.6185 21.9271C15.7403 21.9779 15.871 22.004 16.003 22.004C16.135 22.004 16.2658 21.9779 16.3876 21.9271C16.5095 21.8764 16.6201 21.802 16.713 21.7082Z" fill="black"/>
</svg>
