<svg width="14" height="18" viewBox="0 0 14 18" fill="none" xmlns="http://www.w3.org/2000/svg">
<path d="M7 11.3C7.85 10.5167 8.5375 9.87083 9.0625 9.3625C9.5875 8.85417 9.99167 8.41667 10.275 8.05C10.5583 7.68333 10.75 7.3625 10.85 7.0875C10.95 6.8125 11 6.51667 11 6.2C11 5.6 10.7833 5.08333 10.35 4.65C9.91667 4.21667 9.4 4 8.8 4C8.45 4 8.1125 4.07083 7.7875 4.2125C7.4625 4.35417 7.2 4.55 7 4.8C6.8 4.55 6.54167 4.35417 6.225 4.2125C5.90833 4.07083 5.56667 4 5.2 4C4.6 4 4.08333 4.21667 3.65 4.65C3.21667 5.08333 3 5.6 3 6.2C3 6.51667 3.04583 6.80833 3.1375 7.075C3.22917 7.34167 3.41667 7.65833 3.7 8.025C3.98333 8.39167 4.38333 8.82917 4.9 9.3375C5.41667 9.84583 6.11667 10.5 7 11.3ZM0 18V2C0 1.45 0.195833 0.979167 0.5875 0.5875C0.979167 0.195833 1.45 0 2 0H12C12.55 0 13.0208 0.195833 13.4125 0.5875C13.8042 0.979167 14 1.45 14 2V18L7 15L0 18ZM2 14.95L7 12.8L12 14.95V2H2V14.95Z" fill="#1C1B1F"/>
</svg>
