<svg width="16" height="16" viewBox="0 0 16 16" fill="none" xmlns="http://www.w3.org/2000/svg">
<path d="M13.5 4.25003H11.8787C12.1107 3.91259 12.2397 3.51502 12.25 3.10566C12.2593 2.7938 12.2046 2.48335 12.0895 2.19336C11.9744 1.90338 11.8013 1.63999 11.5806 1.41938C11.36 1.19877 11.0966 1.02559 10.8067 0.910487C10.5167 0.795381 10.2062 0.740777 9.89437 0.75003C9.60633 0.756178 9.32267 0.821812 9.06121 0.942811C8.79974 1.06381 8.56612 1.23756 8.375 1.45316C8.23404 1.61395 8.10849 1.78763 8 1.97191C7.89151 1.78763 7.76596 1.61395 7.625 1.45316C7.43388 1.23756 7.20026 1.06381 6.93879 0.942811C6.67733 0.821812 6.39367 0.756178 6.10563 0.75003C5.79377 0.740777 5.48332 0.795381 5.19333 0.910487C4.90335 1.02559 4.63996 1.19877 4.41935 1.41938C4.19874 1.63999 4.02556 1.90338 3.91046 2.19336C3.79535 2.48335 3.74075 2.7938 3.75 3.10566C3.76029 3.51502 3.88926 3.91259 4.12125 4.25003H2.5C2.16848 4.25003 1.85054 4.38173 1.61612 4.61615C1.3817 4.85057 1.25 5.16851 1.25 5.50003V7.50003C1.24994 7.78819 1.34945 8.06753 1.53167 8.29076C1.7139 8.51399 1.96766 8.6674 2.25 8.72503V12.5C2.25 12.8316 2.3817 13.1495 2.61612 13.3839C2.85054 13.6183 3.16848 13.75 3.5 13.75H12.5C12.8315 13.75 13.1495 13.6183 13.3839 13.3839C13.6183 13.1495 13.75 12.8316 13.75 12.5V8.72503C14.0323 8.6674 14.2861 8.51399 14.4683 8.29076C14.6506 8.06753 14.7501 7.78819 14.75 7.50003V5.50003C14.75 5.16851 14.6183 4.85057 14.3839 4.61615C14.1495 4.38173 13.8315 4.25003 13.5 4.25003ZM13.25 7.25003H8.75V5.75003H13.25V7.25003ZM9.5 2.44816C9.55532 2.38675 9.62275 2.33745 9.69804 2.30336C9.77333 2.26926 9.85486 2.25111 9.9375 2.25003H9.95938C10.0651 2.24973 10.1699 2.27071 10.2674 2.31171C10.3649 2.35271 10.4531 2.41291 10.5269 2.48871C10.6007 2.56451 10.6584 2.65437 10.6967 2.75295C10.7351 2.85153 10.7532 2.95681 10.75 3.06253C10.7489 3.14517 10.7308 3.2267 10.6967 3.30199C10.6626 3.37728 10.6133 3.44471 10.5519 3.50003C10.1206 3.88253 9.41125 4.07878 8.825 4.17253C8.91875 3.58878 9.115 2.87941 9.5 2.44816ZM5.48125 2.48128C5.62961 2.33451 5.82944 2.25153 6.03813 2.25003H6.0625C6.14514 2.25111 6.22667 2.26926 6.30196 2.30336C6.37725 2.33745 6.44468 2.38675 6.5 2.44816C6.8825 2.87941 7.07875 3.58816 7.17188 4.17378C6.59062 4.07941 5.875 3.88316 5.44812 3.50003C5.38672 3.44471 5.33742 3.37728 5.30333 3.30199C5.26923 3.2267 5.25108 3.14517 5.25 3.06253C5.24724 2.95504 5.2663 2.84811 5.30605 2.7482C5.3458 2.6483 5.4054 2.55749 5.48125 2.48128ZM2.75 5.75003H7.25V7.25003H2.75V5.75003ZM3.75 8.75003H7.25V12.25H3.75V8.75003ZM8.75 12.25V8.75003H12.25V12.25H8.75Z" fill="black"/>
</svg>
