<svg width="14" height="14" viewBox="0 0 14 14" fill="none" xmlns="http://www.w3.org/2000/svg">
<path d="M13.0547 5.6041L3.43574 2.03574L3.42207 2.03082C3.22812 1.96372 3.0192 1.95254 2.8192 1.99855C2.6192 2.04457 2.43617 2.14594 2.29106 2.29106C2.14594 2.43617 2.04457 2.6192 1.99855 2.8192C1.95254 3.0192 1.96372 3.22812 2.03082 3.42207L2.03574 3.43574L5.6041 13.0547C5.67975 13.2675 5.81939 13.4516 6.00387 13.5819C6.18834 13.7121 6.4086 13.782 6.63441 13.7821H6.65355C6.88423 13.7781 7.10773 13.7012 7.29209 13.5625C7.47646 13.4238 7.61224 13.2304 7.68004 13.0099L7.68496 12.994L8.84598 8.84598L12.994 7.68496L13.0099 7.68004C13.2304 7.61297 13.4241 7.47796 13.5633 7.29428C13.7025 7.1106 13.7801 6.88764 13.7851 6.65722C13.7901 6.4268 13.7221 6.2007 13.591 6.01118C13.4598 5.82167 13.2721 5.67843 13.0547 5.60191V5.6041ZM8.13668 7.68223C8.02815 7.71261 7.92928 7.77044 7.84958 7.85013C7.76989 7.92982 7.71207 8.0287 7.68168 8.13722L6.60543 11.9812L3.43519 3.43519L11.9807 6.60707L8.13668 7.68223Z" fill="white"/>
</svg>
