<svg width="32" height="32" viewBox="0 0 32 32" fill="none" xmlns="http://www.w3.org/2000/svg">
<path d="M8.4 13.6H7.4H8.4ZM15.6 6.4V5.4V6.4ZM6 23.4C5.44772 23.4 5 23.8477 5 24.4C5 24.9523 5.44772 25.4 6 25.4V23.4ZM25.2 25.4C25.7523 25.4 26.2 24.9523 26.2 24.4C26.2 23.8477 25.7523 23.4 25.2 23.4V25.4ZM14.4 27C13.8477 27 13.4 27.4477 13.4 28C13.4 28.5523 13.8477 29 14.4 29V27ZM16.8 29C17.3523 29 17.8 28.5523 17.8 28C17.8 27.4477 17.3523 27 16.8 27V29ZM9.4 24.4V13.6H7.4V24.4H9.4ZM9.4 13.6C9.4 11.9557 10.0532 10.3787 11.2159 9.21594L9.80172 7.80172C8.26393 9.33952 7.4 11.4252 7.4 13.6H9.4ZM11.2159 9.21594C12.3787 8.05321 13.9557 7.4 15.6 7.4V5.4C13.4252 5.4 11.3395 6.26393 9.80172 7.80172L11.2159 9.21594ZM15.6 7.4C17.2443 7.4 18.8213 8.05321 19.9841 9.21594L21.3983 7.80172C19.8605 6.26393 17.7748 5.4 15.6 5.4V7.4ZM19.9841 9.21594C21.1468 10.3787 21.8 11.9557 21.8 13.6H23.8C23.8 11.4252 22.9361 9.33952 21.3983 7.80172L19.9841 9.21594ZM21.8 13.6V24.4H23.8V13.6H21.8ZM8.4 25.4H22.8V23.4H8.4V25.4ZM8.4 23.4H6V25.4H8.4V23.4ZM22.8 25.4H25.2V23.4H22.8V25.4ZM14.4 29H16.8V27H14.4V29ZM15.8 5.2C15.8 5.31046 15.7105 5.4 15.6 5.4V7.4C16.815 7.4 17.8 6.41503 17.8 5.2H15.8ZM15.6 5.4C15.4895 5.4 15.4 5.31046 15.4 5.2H13.4C13.4 6.41503 14.385 7.4 15.6 7.4V5.4ZM15.4 5.2C15.4 5.08954 15.4895 5 15.6 5V3C14.385 3 13.4 3.98497 13.4 5.2H15.4ZM15.6 5C15.7105 5 15.8 5.08954 15.8 5.2H17.8C17.8 3.98497 16.815 3 15.6 3V5Z" fill="black"/>
<circle cx="22" cy="10" r="3.75" fill="#001FFF" stroke="white" stroke-width="1.5"/>
</svg>
