<svg width="32" height="32" viewBox="0 0 32 32" fill="none" xmlns="http://www.w3.org/2000/svg">
<rect width="32" height="32" rx="6" fill="#E8E8E8"/>
<path d="M24.2758 7.73121V24.2805C24.2758 24.4713 24.2 24.6543 24.0651 24.7893C23.9301 24.9242 23.7471 25 23.5563 25C23.3655 25 23.1824 24.9242 23.0475 24.7893C22.9126 24.6543 22.8368 24.4713 22.8368 24.2805V19.9633H18.5196C18.3287 19.9633 18.1457 19.8875 18.0108 19.7525C17.8758 19.6176 17.8 19.4346 17.8 19.2437C17.8334 17.5202 18.0511 15.8051 18.4494 14.1279C19.329 10.4861 20.9965 8.0451 23.273 7.07014C23.3824 7.02327 23.5017 7.00428 23.6203 7.01486C23.7388 7.02545 23.8529 7.06528 23.9523 7.13079C24.0517 7.1963 24.1333 7.28545 24.1897 7.39023C24.2462 7.49502 24.2758 7.61218 24.2758 7.73121ZM15.6315 7.61338C15.6174 7.5189 15.5847 7.42818 15.5352 7.34649C15.4856 7.26481 15.4203 7.1938 15.3431 7.13762C15.2658 7.08143 15.1782 7.04119 15.0852 7.01925C14.9922 6.9973 14.8958 6.99409 14.8016 7.00979C14.7074 7.02549 14.6172 7.0598 14.5364 7.11072C14.4555 7.16163 14.3857 7.22813 14.3308 7.30633C14.276 7.38453 14.2372 7.47288 14.2169 7.56621C14.1965 7.65954 14.1949 7.75599 14.2123 7.84993L14.912 12.0484H12.7633V7.73121C12.7633 7.54038 12.6875 7.35736 12.5525 7.22242C12.4176 7.08748 12.2346 7.01167 12.0438 7.01167C11.8529 7.01167 11.6699 7.08748 11.535 7.22242C11.4 7.35736 11.3242 7.54038 11.3242 7.73121V12.0484H9.17552L9.87527 7.84993C9.89258 7.75599 9.89101 7.65954 9.87066 7.56621C9.8503 7.47288 9.81156 7.38453 9.75671 7.30633C9.70185 7.22813 9.63197 7.16163 9.55115 7.11072C9.47032 7.0598 9.38016 7.02549 9.28594 7.00979C9.19171 6.99409 9.09531 6.9973 9.00234 7.01925C8.90937 7.04119 8.8217 7.08143 8.74444 7.13762C8.66719 7.1938 8.60189 7.26481 8.55237 7.34649C8.50285 7.42818 8.47008 7.5189 8.45599 7.61338L7.73646 11.9306C7.73 11.9695 7.72669 12.0089 7.72656 12.0484C7.728 13.0682 8.08985 14.0546 8.74818 14.8334C9.40651 15.6122 10.3189 16.1332 11.3242 16.3044V24.2805C11.3242 24.4713 11.4 24.6543 11.535 24.7893C11.6699 24.9242 11.8529 25 12.0438 25C12.2346 25 12.4176 24.9242 12.5525 24.7893C12.6875 24.6543 12.7633 24.4713 12.7633 24.2805V16.3044C13.7686 16.1332 14.681 15.6122 15.3393 14.8334C15.9977 14.0546 16.3595 13.0682 16.361 12.0484C16.3608 12.0089 16.3575 11.9695 16.3511 11.9306L15.6315 7.61338Z" fill="black"/>
</svg>
