<svg width="16" height="16" viewBox="0 0 16 16" fill="none" xmlns="http://www.w3.org/2000/svg">
<mask id="mask0_2555_8036" style="mask-type:alpha" maskUnits="userSpaceOnUse" x="0" y="0" width="16" height="16">
<rect width="16" height="16" fill="#D9D9D9"/>
</mask>
<g mask="url(#mask0_2555_8036)">
<path d="M2 14.6673V1.33398L3 2.33398L4 1.33398L5 2.33398L6 1.33398L7 2.33398L8 1.33398L9 2.33398L10 1.33398L11 2.33398L12 1.33398L13 2.33398L14 1.33398V14.6673L13 13.6673L12 14.6673L11 13.6673L10 14.6673L9 13.6673L8 14.6673L7 13.6673L6 14.6673L5 13.6673L4 14.6673L3 13.6673L2 14.6673ZM4 11.334H12V10.0007H4V11.334ZM4 8.66732H12V7.33398H4V8.66732ZM4 6.00065H12V4.66732H4V6.00065Z" fill="#1C1B1F"/>
</g>
</svg>
