<svg width="32" height="32" viewBox="0 0 32 32" fill="none" xmlns="http://www.w3.org/2000/svg">
<rect width="32" height="32" rx="6" fill="black"/>
<path d="M12.25 10V7C12.25 6.80109 12.329 6.61032 12.4697 6.46967C12.6103 6.32902 12.8011 6.25 13 6.25C13.1989 6.25 13.3897 6.32902 13.5303 6.46967C13.671 6.61032 13.75 6.80109 13.75 7V10C13.75 10.1989 13.671 10.3897 13.5303 10.5303C13.3897 10.671 13.1989 10.75 13 10.75C12.8011 10.75 12.6103 10.671 12.4697 10.5303C12.329 10.3897 12.25 10.1989 12.25 10ZM16 10.75C16.1989 10.75 16.3897 10.671 16.5303 10.5303C16.671 10.3897 16.75 10.1989 16.75 10V7C16.75 6.80109 16.671 6.61032 16.5303 6.46967C16.3897 6.32902 16.1989 6.25 16 6.25C15.8011 6.25 15.6103 6.32902 15.4697 6.46967C15.329 6.61032 15.25 6.80109 15.25 7V10C15.25 10.1989 15.329 10.3897 15.4697 10.5303C15.6103 10.671 15.8011 10.75 16 10.75ZM19 10.75C19.1989 10.75 19.3897 10.671 19.5303 10.5303C19.671 10.3897 19.75 10.1989 19.75 10V7C19.75 6.80109 19.671 6.61032 19.5303 6.46967C19.3897 6.32902 19.1989 6.25 19 6.25C18.8011 6.25 18.6103 6.32902 18.4697 6.46967C18.329 6.61032 18.25 6.80109 18.25 7V10C18.25 10.1989 18.329 10.3897 18.4697 10.5303C18.6103 10.671 18.8011 10.75 19 10.75ZM27.85 14.05C27.7307 13.8909 27.553 13.7857 27.3561 13.7575C27.1592 13.7294 26.9591 13.7807 26.8 13.9L25 15.25V13C25 12.8011 24.921 12.6103 24.7803 12.4697C24.6397 12.329 24.4489 12.25 24.25 12.25H7.75C7.55109 12.25 7.36033 12.329 7.21967 12.4697C7.07902 12.6103 7 12.8011 7 13V15.25L5.2 13.9C5.04087 13.7807 4.84085 13.7294 4.64394 13.7575C4.44702 13.7857 4.26935 13.8909 4.15 14.05C4.03066 14.2091 3.97941 14.4092 4.00754 14.6061C4.03567 14.803 4.14087 14.9807 4.3 15.1L7 17.125V22.75C7 23.5456 7.31607 24.3087 7.87868 24.8713C8.44129 25.4339 9.20435 25.75 10 25.75H22C22.7957 25.75 23.5587 25.4339 24.1213 24.8713C24.6839 24.3087 25 23.5456 25 22.75V17.125L27.7 15.1C27.7788 15.0409 27.8452 14.9669 27.8954 14.8821C27.9455 14.7974 27.9785 14.7036 27.9925 14.6061C28.0064 14.5086 28.001 14.4093 27.9765 14.3139C27.9521 14.2185 27.9091 14.1288 27.85 14.05Z" fill="white"/>
</svg>
