<svg width="18" height="17" viewBox="0 0 18 17" fill="none" xmlns="http://www.w3.org/2000/svg">
<path d="M1.8 13.4211V15.2105H16.2V13.4211H1.8ZM1.8 3.57895H3.78C3.705 3.44474 3.65625 3.30307 3.63375 3.15395C3.61125 3.00482 3.6 2.84825 3.6 2.68421C3.6 1.9386 3.8625 1.30482 4.3875 0.782895C4.9125 0.260965 5.55 0 6.3 0C6.75 0 7.16625 0.11557 7.54875 0.346711C7.93125 0.577851 8.265 0.864912 8.55 1.20789L9 1.78947L9.45 1.20789C9.72 0.85 10.05 0.559211 10.44 0.335526C10.83 0.111842 11.25 0 11.7 0C12.45 0 13.0875 0.260965 13.6125 0.782895C14.1375 1.30482 14.4 1.9386 14.4 2.68421C14.4 2.84825 14.3888 3.00482 14.3663 3.15395C14.3438 3.30307 14.295 3.44474 14.22 3.57895H16.2C16.695 3.57895 17.1187 3.75417 17.4713 4.10461C17.8237 4.45504 18 4.87632 18 5.36842V15.2105C18 15.7026 17.8237 16.1239 17.4713 16.4743C17.1187 16.8248 16.695 17 16.2 17H1.8C1.305 17 0.88125 16.8248 0.52875 16.4743C0.17625 16.1239 0 15.7026 0 15.2105V5.36842C0 4.87632 0.17625 4.45504 0.52875 4.10461C0.88125 3.75417 1.305 3.57895 1.8 3.57895ZM1.8 10.7368H16.2V5.36842H11.61L13.5 7.91842L12.06 8.94737L9 4.83158L5.94 8.94737L4.5 7.91842L6.345 5.36842H1.8V10.7368ZM6.3 3.57895C6.555 3.57895 6.76875 3.4932 6.94125 3.32171C7.11375 3.15022 7.2 2.93772 7.2 2.68421C7.2 2.4307 7.11375 2.2182 6.94125 2.04671C6.76875 1.87522 6.555 1.78947 6.3 1.78947C6.045 1.78947 5.83125 1.87522 5.65875 2.04671C5.48625 2.2182 5.4 2.4307 5.4 2.68421C5.4 2.93772 5.48625 3.15022 5.65875 3.32171C5.83125 3.4932 6.045 3.57895 6.3 3.57895ZM11.7 3.57895C11.955 3.57895 12.1687 3.4932 12.3413 3.32171C12.5138 3.15022 12.6 2.93772 12.6 2.68421C12.6 2.4307 12.5138 2.2182 12.3413 2.04671C12.1687 1.87522 11.955 1.78947 11.7 1.78947C11.445 1.78947 11.2312 1.87522 11.0588 2.04671C10.8863 2.2182 10.8 2.4307 10.8 2.68421C10.8 2.93772 10.8863 3.15022 11.0588 3.32171C11.2312 3.4932 11.445 3.57895 11.7 3.57895Z" fill="url(#paint0_radial_2552_6526)"/>
<defs>
<radialGradient id="paint0_radial_2552_6526" cx="0" cy="0" r="1" gradientUnits="userSpaceOnUse" gradientTransform="translate(9 8.5) scale(14.9498 210.906)">
<stop stop-color="#F8E0A5"/>
<stop offset="1" stop-color="#EBA856"/>
</radialGradient>
</defs>
</svg>
