<svg width="14" height="14" viewBox="0 0 14 14" fill="none" xmlns="http://www.w3.org/2000/svg">
<path d="M11.8125 6.12534V11.3753C11.8125 11.6074 11.7203 11.83 11.5562 11.9941C11.3921 12.1582 11.1696 12.2503 10.9375 12.2503H3.0625C2.83044 12.2503 2.60788 12.1582 2.44378 11.9941C2.27969 11.83 2.1875 11.6074 2.1875 11.3753V6.12534C2.1875 5.89328 2.27969 5.67072 2.44378 5.50663C2.60788 5.34253 2.83044 5.25034 3.0625 5.25034H4.375C4.49103 5.25034 4.60231 5.29644 4.68436 5.37848C4.76641 5.46053 4.8125 5.57181 4.8125 5.68784C4.8125 5.80388 4.76641 5.91516 4.68436 5.9972C4.60231 6.07925 4.49103 6.12534 4.375 6.12534H3.0625V11.3753H10.9375V6.12534H9.625C9.50897 6.12534 9.39769 6.07925 9.31564 5.9972C9.23359 5.91516 9.1875 5.80388 9.1875 5.68784C9.1875 5.57181 9.23359 5.46053 9.31564 5.37848C9.39769 5.29644 9.50897 5.25034 9.625 5.25034H10.9375C11.1696 5.25034 11.3921 5.34253 11.5562 5.50663C11.7203 5.67072 11.8125 5.89328 11.8125 6.12534ZM5.12203 3.80988L6.5625 2.36886V7.43784C6.5625 7.55388 6.60859 7.66516 6.69064 7.7472C6.77269 7.82925 6.88397 7.87534 7 7.87534C7.11603 7.87534 7.22731 7.82925 7.30936 7.7472C7.39141 7.66516 7.4375 7.55388 7.4375 7.43784V2.36886L8.87797 3.80988C8.96006 3.89197 9.0714 3.93809 9.1875 3.93809C9.3036 3.93809 9.41494 3.89197 9.49703 3.80988C9.57912 3.72778 9.62524 3.61644 9.62524 3.50034C9.62524 3.38425 9.57912 3.27291 9.49703 3.19081L7.30953 1.00331C7.2689 0.962636 7.22065 0.930366 7.16754 0.908349C7.11442 0.886332 7.05749 0.875 7 0.875C6.94251 0.875 6.88558 0.886332 6.83246 0.908349C6.77935 0.930366 6.7311 0.962636 6.69047 1.00331L4.50297 3.19081C4.42088 3.27291 4.37476 3.38425 4.37476 3.50034C4.37476 3.61644 4.42088 3.72778 4.50297 3.80988C4.58506 3.89197 4.6964 3.93809 4.8125 3.93809C4.9286 3.93809 5.03994 3.89197 5.12203 3.80988Z" fill="black"/>
</svg>
