<svg width="24" height="24" viewBox="0 0 24 24" fill="none" xmlns="http://www.w3.org/2000/svg">
<path d="M22.5456 9.70495L15.0456 2.20495C14.8883 2.04749 14.6879 1.94022 14.4696 1.89671C14.2513 1.8532 14.0251 1.8754 13.8194 1.96051C13.6138 2.04561 13.438 2.1898 13.3143 2.37482C13.1907 2.55985 13.1247 2.7774 13.1246 2.99995V6.44432C10.7096 6.73682 8.09402 7.93401 5.92933 9.76963C3.19558 12.089 1.49308 15.0843 1.13495 18.2071C1.09867 18.5205 1.16212 18.8373 1.31626 19.1126C1.47041 19.3878 1.70741 19.6075 1.99357 19.7403C2.27972 19.8731 2.60046 19.9123 2.91017 19.8523C3.21989 19.7923 3.50281 19.6362 3.7187 19.4062C4.69933 18.3618 8.12495 15.1181 13.1246 14.6793V17.9999C13.1248 18.2223 13.1909 18.4396 13.3146 18.6244C13.4382 18.8093 13.6138 18.9533 13.8193 19.0384C14.0247 19.1234 14.2507 19.1457 14.4688 19.1024C14.6869 19.0591 14.8873 18.9521 15.0446 18.7949L22.5446 11.2949C22.7554 11.0841 22.8739 10.7983 22.8741 10.5001C22.8743 10.202 22.7561 9.91601 22.5456 9.70495ZM15.3746 15.2812V13.4999C15.3746 13.2016 15.2561 12.9154 15.0451 12.7045C14.8342 12.4935 14.548 12.3749 14.2496 12.3749C9.65589 12.3749 6.1337 14.3962 3.95683 16.1353C4.62527 14.4328 5.79714 12.8334 7.38527 11.4862C9.49652 9.69463 12.0625 8.62495 14.2496 8.62495C14.548 8.62495 14.8342 8.50642 15.0451 8.29544C15.2561 8.08446 15.3746 7.79832 15.3746 7.49995V5.7187L20.1559 10.4999L15.3746 15.2812Z" fill="white"/>
</svg>
