<svg width="14" height="10" viewBox="0 0 14 10" fill="none" xmlns="http://www.w3.org/2000/svg">
<path d="M13.5 3.5C13.6326 3.5 13.7598 3.44732 13.8536 3.35355C13.9473 3.25979 14 3.13261 14 3V1C14 0.734784 13.8946 0.48043 13.7071 0.292893C13.5196 0.105357 13.2652 0 13 0H1C0.734784 0 0.48043 0.105357 0.292893 0.292893C0.105357 0.48043 0 0.734784 0 1V3C0 3.13261 0.0526784 3.25979 0.146447 3.35355C0.240215 3.44732 0.367392 3.5 0.5 3.5C0.897825 3.5 1.27936 3.65804 1.56066 3.93934C1.84196 4.22064 2 4.60218 2 5C2 5.39782 1.84196 5.77936 1.56066 6.06066C1.27936 6.34197 0.897825 6.5 0.5 6.5C0.367392 6.5 0.240215 6.55268 0.146447 6.64645C0.0526784 6.74021 0 6.86739 0 7V9C0 9.26522 0.105357 9.51957 0.292893 9.70711C0.48043 9.89464 0.734784 10 1 10H13C13.2652 10 13.5196 9.89464 13.7071 9.70711C13.8946 9.51957 14 9.26522 14 9V7C14 6.86739 13.9473 6.74021 13.8536 6.64645C13.7598 6.55268 13.6326 6.5 13.5 6.5C13.1022 6.5 12.7206 6.34197 12.4393 6.06066C12.158 5.77936 12 5.39782 12 5C12 4.60218 12.158 4.22064 12.4393 3.93934C12.7206 3.65804 13.1022 3.5 13.5 3.5ZM1 7.45C1.56514 7.33524 2.07324 7.02864 2.43819 6.58213C2.80314 6.13562 3.00251 5.57668 3.00251 5C3.00251 4.42332 2.80314 3.86438 2.43819 3.41787C2.07324 2.97136 1.56514 2.66476 1 2.55V1H4.5V9H1V7.45Z" fill="white"/>
</svg>
