<svg width="19" height="24" viewBox="0 0 19 24" fill="none" xmlns="http://www.w3.org/2000/svg">
<g filter="url(#filter0_d_2552_6640)">
<path d="M15.5983 1.00035C15.6583 1.00018 15.6583 1.00018 15.7194 1C15.7605 1.00035 15.8016 1.0007 15.8439 1.00105C15.8851 1.00071 15.9263 1.00036 15.9688 1C16.0087 1.00012 16.0486 1.00023 16.0897 1.00035C16.1258 1.00045 16.1619 1.00055 16.199 1.00066C16.3111 1.01316 16.4034 1.05018 16.5083 1.10215C16.5083 1.13181 16.5083 1.16147 16.5083 1.19202C16.5287 1.19654 16.5491 1.20106 16.57 1.20571C16.7029 1.26105 16.7747 1.40299 16.8502 1.55149C16.8833 1.65754 16.901 1.75299 16.9185 1.86602C16.8245 2.00335 16.7542 2.07218 16.6193 2.12329C16.5865 2.13603 16.5537 2.14878 16.5199 2.1619C16.4839 2.17524 16.4479 2.18858 16.4109 2.20232C16.3725 2.21706 16.3341 2.2318 16.2945 2.24699C16.1877 2.28787 16.0808 2.32823 15.9738 2.36839C15.8582 2.41195 15.7427 2.4562 15.6272 2.5004C15.4515 2.56758 15.2757 2.63455 15.0998 2.70127C14.7412 2.83735 14.3829 2.97489 14.0247 3.11292C13.9963 3.12387 13.9679 3.13481 13.9386 3.14609C13.8225 3.19082 13.7064 3.23556 13.5903 3.28031C13.2916 3.39544 12.9928 3.51029 12.694 3.62514C12.0259 3.88194 11.358 4.13936 10.6901 4.39701C9.76395 4.75427 8.83774 5.11105 7.91144 5.46741C7.82091 5.50223 7.73039 5.53706 7.63986 5.57189C7.52493 5.61611 7.41 5.66032 7.29507 5.70453C7.18673 5.7462 7.0784 5.78789 6.97007 5.82961C6.73531 5.91997 6.5005 6.01003 6.26546 6.09908C6.22654 6.11386 6.18763 6.12864 6.14753 6.14387C6.07681 6.1707 6.00606 6.19741 5.93528 6.22397C5.9051 6.23544 5.87492 6.2469 5.84382 6.25871C5.81785 6.26848 5.79189 6.27826 5.76514 6.28834C5.70613 6.30822 5.70613 6.30822 5.67228 6.35936C5.66446 6.44905 5.65876 6.53907 5.65398 6.62913C5.65129 6.67828 5.6486 6.72743 5.64583 6.77807C5.64254 6.84164 5.63925 6.9052 5.63596 6.96876C5.63025 7.07647 5.62453 7.18418 5.61881 7.29189C5.616 7.34486 5.61319 7.39784 5.61029 7.45242C5.60818 7.49206 5.60608 7.53171 5.60391 7.57256C6.45464 7.25523 7.30365 6.93061 8.15203 6.60261C8.32244 6.53674 8.49287 6.47094 8.6633 6.40513C8.91239 6.30895 9.16149 6.21274 9.41057 6.11651C10.0592 5.86594 10.7079 5.61571 11.3566 5.36549C11.5537 5.28945 11.7509 5.2134 11.948 5.13735C12.5354 4.91073 13.1228 4.68415 13.7103 4.45769C13.7955 4.42482 13.8808 4.39196 13.966 4.35909C14.2096 4.26519 14.4532 4.17129 14.6967 4.07742C15.1959 3.88506 15.695 3.69245 16.1939 3.49889C16.2767 3.46679 16.3595 3.43468 16.4423 3.40257C16.5925 3.34432 16.7427 3.28595 16.8929 3.22749C16.9583 3.20211 17.0238 3.17673 17.0892 3.15136C17.1183 3.13999 17.1474 3.12863 17.1774 3.11691C17.4209 3.02267 17.6369 2.98119 17.8906 2.98093C17.9191 2.98038 17.9476 2.97983 17.9769 2.97926C18.1395 2.97876 18.2699 2.99663 18.4226 3.07922C18.4226 3.10888 18.4226 3.13853 18.4226 3.16909C18.4429 3.17378 18.4631 3.17847 18.484 3.1833C18.5704 3.21854 18.608 3.26123 18.6704 3.34601C18.6882 3.36959 18.706 3.39316 18.7244 3.41745C18.7644 3.48362 18.7644 3.48362 18.7644 3.57349C18.787 3.57349 18.8095 3.57349 18.8328 3.57349C19.1348 4.3462 18.947 5.38249 18.8888 6.21622C18.8638 6.57871 18.8427 6.94155 18.822 7.3045C18.7895 7.87436 18.7552 8.44393 18.7174 9.01323C18.6681 9.75719 18.6221 10.5015 18.5764 11.2459C18.5736 11.2915 18.5736 11.2915 18.5708 11.338C18.5224 12.1271 18.475 12.9162 18.4294 13.7056C18.3888 14.4094 18.3439 15.1127 18.2965 15.8157C18.2897 15.9182 18.2831 16.0206 18.2769 16.1231C18.2742 16.1671 18.2715 16.2111 18.2686 16.2565C18.2664 16.2941 18.2642 16.3317 18.2619 16.3705C18.2461 16.523 18.2005 16.6465 18.1491 16.7839C18.1238 16.8651 18.0989 16.9466 18.0744 17.0282C18.0626 17.0671 18.0508 17.106 18.0387 17.146C18.03 17.1748 18.0213 17.2036 18.0124 17.2332C17.9898 17.2332 17.9673 17.2332 17.944 17.2332C17.9405 17.2583 17.937 17.2833 17.9333 17.3091C17.905 17.4344 17.8639 17.5304 17.8073 17.6376C17.7847 17.6376 17.7622 17.6376 17.7389 17.6376C17.7297 17.6643 17.7205 17.691 17.7109 17.7185C17.646 17.8775 17.5493 17.9915 17.4526 18.1179C17.4329 18.1445 17.4132 18.1712 17.3928 18.1987C17.3735 18.2241 17.3542 18.2495 17.3343 18.2756C17.3169 18.2987 17.2994 18.3218 17.2814 18.3456C17.2183 18.4094 17.1671 18.428 17.0895 18.4464C17.0895 18.4761 17.0895 18.5057 17.0895 18.5363C16.6299 18.8643 16.1308 19.039 15.6314 19.2298C15.505 19.2782 15.3787 19.3273 15.2523 19.3763C15.0656 19.4487 14.8789 19.5209 14.6921 19.5929C14.3513 19.7242 14.0108 19.8568 13.6705 19.9901C13.6451 20.0001 13.6198 20.01 13.5937 20.0202C13.4908 20.0605 13.3879 20.1008 13.2851 20.1411C12.9946 20.2549 12.7041 20.3683 12.4136 20.4818C12.3735 20.4974 12.3735 20.4974 12.3327 20.5134C11.621 20.7912 10.9092 21.0683 10.1974 21.3454C9.36543 21.6693 8.5336 21.9939 7.7019 22.3191C6.84255 22.6552 5.98299 22.9903 5.12321 23.3245C5.09735 23.3346 5.07149 23.3446 5.04485 23.355C4.99376 23.3748 4.94268 23.3947 4.89159 23.4145C4.84212 23.4338 4.79266 23.453 4.7432 23.4722C4.62686 23.5175 4.51051 23.5626 4.39411 23.6075C4.21189 23.678 4.02983 23.7486 3.84871 23.8238C3.58089 23.9343 3.33707 24.0087 3.05513 23.9985C3.02417 23.999 2.99322 23.9995 2.96133 24C2.71386 23.9965 2.53878 23.9134 2.34583 23.7103C2.32679 23.684 2.30776 23.6577 2.28814 23.6306C2.25853 23.5908 2.25853 23.5908 2.22832 23.5502C2.1856 23.479 2.1856 23.479 2.1856 23.3891C2.16303 23.3891 2.14047 23.3891 2.11723 23.3891C1.98491 23.038 1.99895 22.6794 2.00186 22.2967C2.00197 22.2613 2.00209 22.226 2.00221 22.1896C2.0048 21.4954 2.04654 20.8097 2.09756 20.1193C2.12023 19.8083 2.13527 19.4969 2.14928 19.185C2.17787 18.5627 2.21547 17.9416 2.25396 17.3203C2.29181 16.7092 2.32924 16.0983 2.35865 15.4864C2.3829 14.9821 2.41365 14.4788 2.44643 13.9753C2.48289 13.414 2.51468 12.8525 2.54452 12.2906C2.58707 11.4916 2.63382 10.6932 2.68729 9.89538C2.69692 9.75073 2.70608 9.60605 2.71517 9.46134C2.75129 8.91866 2.83738 8.43264 3.00599 7.93202C3.02181 7.88482 3.03763 7.83761 3.05393 7.78897C3.44599 6.69661 4.14672 5.72169 4.95443 5.14616C4.99381 5.11716 4.99381 5.11716 5.03399 5.08759C5.34127 4.87242 5.6587 4.748 5.99194 4.6217C6.05263 4.59829 6.11331 4.57483 6.17398 4.55133C6.29886 4.50305 6.42379 4.45507 6.54879 4.40735C6.71958 4.34216 6.89021 4.27629 7.0608 4.21019C7.3595 4.09455 7.65838 3.97971 7.9573 3.86503C8.10763 3.80733 8.25795 3.74956 8.40827 3.69179C8.62789 3.60739 8.84752 3.52301 9.06715 3.43866C9.45858 3.28833 9.84997 3.13784 10.2413 2.98725C10.2701 2.97617 10.2989 2.96509 10.3286 2.95368C10.4446 2.90902 10.5607 2.86437 10.6767 2.81971C10.8781 2.74221 11.0795 2.66473 11.2809 2.58726C11.3094 2.57629 11.3379 2.56533 11.3672 2.55404C11.425 2.53182 11.4827 2.50961 11.5404 2.4874C12.0034 2.30929 12.4664 2.13116 12.9293 1.95299C13.1582 1.86492 13.387 1.77686 13.6159 1.68879C13.8028 1.61688 13.9897 1.54496 14.1765 1.47303C14.2917 1.42872 14.4068 1.38441 14.522 1.3401C14.5753 1.31959 14.6286 1.29907 14.6819 1.27856C14.7549 1.25044 14.828 1.22234 14.901 1.19424C14.9418 1.17853 14.9826 1.16282 15.0247 1.14664C15.0631 1.13196 15.1015 1.11728 15.141 1.10215C15.1832 1.08567 15.2254 1.06918 15.2689 1.05219C15.3835 1.01115 15.4798 1.00068 15.5983 1.00035ZM7.9548 10.1327C7.91776 10.1468 7.88072 10.1608 7.84256 10.1753C7.72292 10.2208 7.60345 10.2671 7.48398 10.3135C7.4037 10.3444 7.32342 10.3753 7.24313 10.4061C7.04079 10.4841 6.83861 10.5629 6.6365 10.6419C6.51153 10.6908 6.38654 10.7395 6.26154 10.7883C6.18164 10.8195 6.10175 10.8506 6.02185 10.8818C5.9661 10.9036 5.9661 10.9036 5.90923 10.9258C5.87504 10.9392 5.84085 10.9525 5.80562 10.9663C5.77564 10.978 5.74565 10.9898 5.71475 11.0018C5.65473 11.0258 5.59506 11.0513 5.53554 11.0774C5.48372 11.2136 5.48499 11.3591 5.47559 11.509C5.47336 11.543 5.47113 11.577 5.46884 11.6121C5.46415 11.6843 5.45953 11.7565 5.45497 11.8286C5.44803 11.9383 5.44083 12.048 5.4336 12.1576C5.42906 12.2278 5.42455 12.2981 5.42004 12.3683C5.41791 12.4008 5.41577 12.4333 5.41357 12.4668C5.38453 12.9328 5.39167 13.3703 5.62087 13.7525C5.78609 13.964 6.02808 14.0583 6.25339 14.0879C6.36877 14.0822 6.48106 14.0646 6.59522 14.043C6.59996 14.4247 6.58595 14.8 6.56104 15.1803C6.4926 15.9734 6.4926 15.9734 6.71914 16.6884C6.90501 16.9448 7.15098 17.0398 7.41562 17.0535C7.53015 17.0338 7.53015 17.0338 7.64635 16.9889C7.66842 16.9812 7.69048 16.9735 7.71321 16.9655C7.87846 16.9068 8.04277 16.8436 8.20731 16.7816C8.27186 16.7573 8.27186 16.7573 8.33773 16.7325C8.42456 16.6996 8.51133 16.6664 8.59804 16.633C8.63813 16.6177 8.67822 16.6024 8.71952 16.5866C8.77364 16.5657 8.77364 16.5657 8.82885 16.5444C8.91968 16.5143 8.91968 16.5143 9.02223 16.5143C9.02725 16.5518 9.03227 16.5892 9.03745 16.6279C9.08808 16.9618 9.14241 17.2564 9.32988 17.5028C9.60517 17.7441 9.83203 17.7909 10.1537 17.72C10.4174 17.646 10.6731 17.5365 10.9301 17.4298C10.9873 17.4064 11.0446 17.383 11.1019 17.3596C11.2405 17.3029 11.3791 17.2458 11.5176 17.1883C11.5804 16.838 11.6029 16.4939 11.618 16.1352C11.6235 16.0162 11.629 15.8973 11.6347 15.7783C11.6362 15.7474 11.6377 15.7165 11.6392 15.6846C11.6612 15.236 11.6928 14.7884 11.7239 14.3407C11.7272 14.2925 11.7272 14.2925 11.7305 14.2432C11.7364 14.1562 11.7425 14.0691 11.7486 13.9821C11.7696 13.5672 11.7367 13.239 11.6009 12.8607C11.4298 12.6126 11.1808 12.4814 10.9289 12.4617C10.7813 12.4715 10.653 12.5108 10.5113 12.563C10.4703 12.5775 10.4703 12.5775 10.4283 12.5924C10.2612 12.6523 10.095 12.7162 9.92902 12.7815C9.89195 12.796 9.85489 12.8105 9.81671 12.8254C9.74361 12.8542 9.67059 12.8834 9.59767 12.913C9.56429 12.9262 9.53091 12.9394 9.49652 12.953C9.45197 12.9709 9.45197 12.9709 9.40652 12.9893C9.32987 13.0095 9.32987 13.0095 9.22733 12.9646C9.22932 12.9399 9.23132 12.9152 9.23338 12.8898C9.26069 12.5426 9.28243 12.1949 9.3021 11.8468C9.30762 11.7602 9.30762 11.7602 9.31325 11.6718C9.33939 11.1986 9.35929 10.72 9.11236 10.3412C8.93231 10.1074 8.74239 10.0103 8.49154 9.98849C8.30429 9.99134 8.13313 10.0631 7.9548 10.1327ZM14.7906 10.7209C14.5227 11.0937 14.3309 11.5517 14.2864 12.0659C14.2958 12.352 14.3361 12.6204 14.4915 12.8298C14.6851 13.0038 14.8553 13.0767 15.0897 13.0404C15.5235 12.9195 15.8804 12.5778 16.1259 12.0968C16.2841 11.7485 16.452 11.3015 16.3907 10.885C16.3392 10.6529 16.2699 10.479 16.1323 10.3135C15.651 9.98851 15.1728 10.2596 14.7906 10.7209Z" fill="#001FFF"/>
</g>
<defs>
<filter id="filter0_d_2552_6640" x="0" y="0" width="19" height="24" filterUnits="userSpaceOnUse" color-interpolation-filters="sRGB">
<feFlood flood-opacity="0" result="BackgroundImageFix"/>
<feColorMatrix in="SourceAlpha" type="matrix" values="0 0 0 0 0 0 0 0 0 0 0 0 0 0 0 0 0 0 127 0" result="hardAlpha"/>
<feOffset dx="-2" dy="-1"/>
<feComposite in2="hardAlpha" operator="out"/>
<feColorMatrix type="matrix" values="0 0 0 0 0 0 0 0 0 0.121569 0 0 0 0 1 0 0 0 0.1 0"/>
<feBlend mode="normal" in2="BackgroundImageFix" result="effect1_dropShadow_2552_6640"/>
<feBlend mode="normal" in="SourceGraphic" in2="effect1_dropShadow_2552_6640" result="shape"/>
</filter>
</defs>
</svg>
